PathFileType	4	(X/Y/Z)	c:/Users/goper/Files/vsCode/490R/osim_files/C08/C08_Slow_01.trc
DataRate	CameraRate	NumFrames	NumMarkers	Units                	OrigDataRate	OrigDataStartFrame	OrigNumFrames
250.00	250.00	8	36	mm	250.0	1752	2803
                Frame#	Time	LPSIS			LASIS			LTH1			LTH2			LTH3			LTH4			LLFE			LMFE			LSH1			LSH2			LSH3			LSH4			LLMAL			LMMAL			LCAL			LMTP5			LTOE			LMTP1			RPSIS			RASIS			RTH1			RTH2			RTH3			RTH4			RLFE			RMFE			RSH1			RSH2			RSH3			RSH4			RLMAL			RMMAL			RCAL			RMTP1			RTOE			RMTP5		
		X1	Y1	Z1	X2	Y2	Z2	X3	Y3	Z3	X4	Y4	Z4	X5	Y5	Z5	X6	Y6	Z6	X7	Y7	Z7	X8	Y8	Z8	X9	Y9	Z9	X10	Y10	Z10	X11	Y11	Z11	X12	Y12	Z12	X13	Y13	Z13	X14	Y14	Z14	X15	Y15	Z15	X16	Y16	Z16	X17	Y17	Z17	X18	Y18	Z18	X19	Y19	Z19	X20	Y20	Z20	X21	Y21	Z21	X22	Y22	Z22	X23	Y23	Z23	X24	Y24	Z24	X25	Y25	Z25	X26	Y26	Z26	X27	Y27	Z27	X28	Y28	Z28	X29	Y29	Z29	X30	Y30	Z30	X31	Y31	Z31	X32	Y32	Z32	X33	Y33	Z33	X34	Y34	Z34	X35	Y35	Z35	X36	Y36	Z36

1752	7.00400	490.27255	1057.86621	230.09392	312.88629	1019.60376	64.70515	367.98459	742.35114	370.13004	369.28613	665.25427	349.91714	369.60568	593.31934	342.63751	291.85272	673.79608	332.68115	369.90430	543.23792	333.25012	365.46927	534.58740	203.45915	427.23685	414.70892	338.84875	422.05179	367.64514	337.98245	365.89398	417.58652	340.63290	369.85306	371.93283	337.43225	412.09155	94.71773	275.43533	386.68076	110.41077	188.25870	471.48627	72.59277	215.58018	290.96393	47.01254	300.68750	231.05984	70.15951	244.00104	262.89011	53.41180	186.81802	494.68658	1053.06580	170.18420	276.99286	1020.51819	300.00073	313.57925	752.49146	3.99668	287.34229	677.90558	15.52605	266.06677	602.52014	20.21503	215.58617	703.22217	33.40298	247.31459	541.63190	30.96935	222.73100	499.29648	154.12625	321.69440	501.27249	20.00747	342.81702	462.26773	14.17241	271.21585	465.86884	26.50499	299.68890	431.07352	20.44368	530.58801	228.36407	68.82272	503.93091	212.99127	155.93829	590.70319	245.06293	139.51257	444.94092	87.72153	142.40286	420.42142	96.67903	87.67988	476.29648	104.79434	30.69671
1753	7.00800	486.55542	1058.14380	230.32225	308.88345	1020.14075	65.33295	365.65271	742.35248	370.23697	367.41370	665.26263	350.05371	368.09085	593.32037	342.75198	290.40466	673.78986	332.90198	369.32761	543.21265	333.28214	364.28110	534.56641	203.54037	426.49426	414.85791	338.87177	421.43076	367.83203	338.04163	365.13626	417.62805	340.72311	369.23306	371.96588	337.52512	412.03278	94.78261	275.39932	386.62091	110.45523	188.24637	471.41132	72.65324	215.53941	290.93289	46.99378	300.70004	230.87183	70.06107	244.00642	264.59296	54.12814	187.96567	490.92548	1053.34021	170.37434	273.41418	1020.46869	300.35617	307.76831	753.36908	4.02749	281.27234	678.91211	15.64597	259.49680	603.70850	20.50963	209.38147	704.63580	34.19368	240.31845	542.70526	31.47166	215.94759	499.53491	154.34515	314.72366	501.38586	20.45217	335.37390	462.09866	14.59586	263.86539	466.55493	27.04812	291.86264	431.47009	20.96599	520.07404	225.71376	68.98635	493.27063	210.66611	156.02382	580.62006	241.27867	139.65132	432.69934	86.38383	142.27167	408.02585	95.86615	87.44535	463.80975	103.20443	30.55769
1754	7.01200	482.84280	1058.37048	230.49091	304.96146	1020.65588	65.95343	363.39392	742.30469	370.38806	365.56937	665.25958	350.18179	366.63559	593.34473	342.86270	287.81833	672.88428	332.73129	367.54559	543.17316	333.47617	363.17682	534.53815	203.60994	425.80106	415.03922	338.87927	421.31451	368.09940	338.01645	364.42169	417.61926	340.82553	368.65005	372.01608	337.64935	411.98087	94.85390	275.33344	386.49857	110.52797	188.21007	471.43997	72.76572	215.51918	290.98264	46.98424	300.73337	230.84650	70.03871	244.02501	263.45148	54.40575	187.17052	487.18042	1053.66321	170.55196	269.89087	1020.38049	300.64709	302.07458	754.27386	4.03450	275.18900	679.90979	15.76052	251.36299	604.11292	21.22287	203.70963	706.04657	35.03734	233.73209	543.78076	32.00644	209.22075	499.77103	154.56023	307.81824	501.47287	20.92689	327.94827	461.91296	15.05427	256.46179	467.30377	27.66920	283.53046	431.77396	21.39769	509.28619	222.91908	69.02542	482.56998	208.24158	156.05791	570.58020	237.48325	139.94096	419.37524	84.99332	141.90982	395.27310	95.09460	87.25788	451.20190	101.59451	30.36657
1755	7.01600	479.13699	1058.62109	230.66028	300.97714	1021.07007	66.53182	361.09927	742.27368	370.52628	363.67752	665.20984	350.26871	365.16565	593.35089	342.98007	285.89267	672.48773	332.76572	366.85373	543.12659	333.47537	361.83646	534.48419	203.67336	425.04285	415.20987	338.87897	420.23294	368.12216	338.05417	363.63217	417.60818	340.92197	368.12347	372.01883	337.76700	411.92261	94.92770	275.26208	387.19629	110.14195	188.08673	471.80798	73.13596	215.83188	290.98029	46.96372	300.76349	230.82257	69.95805	244.04295	262.76309	53.18538	186.67099	483.44162	1053.95032	170.69292	266.26608	1020.23480	300.97903	296.37830	755.10651	4.05535	269.23251	680.88861	15.80847	245.31348	605.37964	21.44007	198.24765	707.08923	36.34969	227.11407	544.88684	32.60398	202.55029	500.00485	154.77151	300.94836	501.48129	21.44143	320.54532	461.69366	15.51304	249.19978	467.97766	28.22152	276.25891	432.18774	22.00814	498.68646	220.08757	69.10733	471.75330	205.76932	156.12898	560.52325	233.59979	140.11259	406.78720	83.73893	141.80812	382.43250	94.29547	87.02615	438.46133	99.98919	30.15498
1756	7.02000	475.43744	1058.81580	230.82016	297.08209	1021.42969	67.06393	358.74048	742.18848	370.64304	361.76495	665.17236	350.34073	363.63077	593.33582	343.05344	284.19186	672.25745	332.84293	365.62808	543.12231	333.60727	360.58420	534.41028	203.72177	424.27573	415.33337	338.85846	419.56271	368.25778	338.09018	363.00607	417.68582	341.02390	367.45908	372.02887	337.84430	412.29169	95.23027	275.56339	386.63419	110.52972	188.15790	471.58759	73.34323	215.70695	291.01157	46.95185	300.79156	230.77303	69.90927	244.05209	262.71252	53.12830	186.69266	479.69012	1054.20081	170.80765	262.68347	1020.03412	301.31912	290.72940	755.91638	4.10968	262.75537	681.75934	15.93464	239.21492	606.60223	21.71630	192.60793	708.63898	36.81374	220.78857	545.96173	33.28370	195.93590	500.23630	154.97908	294.10394	501.40179	21.88212	313.48883	461.42493	15.98838	241.92747	468.67337	28.79023	268.47226	432.49057	22.52112	487.95703	217.18306	69.16908	460.81110	203.17642	156.09245	550.06604	229.46098	140.22629	393.24112	82.23151	141.40144	369.50275	93.48109	86.74904	425.63370	98.33779	29.90295
1757	7.02400	471.76205	1059.01294	230.93002	288.16742	1022.37903	67.42461	356.40393	742.12292	370.74377	359.72092	665.07684	350.41257	361.98911	593.26715	343.13010	282.23975	671.87189	332.86728	363.77008	543.03217	333.72507	359.31415	534.40002	203.74960	423.36777	415.46970	338.88052	418.89090	368.42343	338.07816	362.18176	417.65298	341.07642	366.75833	372.03128	337.91403	412.18939	95.29738	275.48438	386.55099	110.56296	188.09714	471.53070	73.41217	215.64818	290.98315	46.93651	300.80014	230.69081	69.82854	244.04842	262.67386	53.13175	186.73137	475.91840	1054.44910	170.90425	259.23438	1019.78662	301.61584	285.12500	756.72577	4.16010	257.50916	682.76569	16.03171	234.09592	608.22961	21.78448	187.00215	709.98334	37.66756	214.02838	547.03754	33.84259	189.37738	500.46552	155.18297	287.32709	501.40463	22.44154	305.92108	461.10413	16.43137	234.50868	469.28033	29.20793	260.76718	432.79688	22.99461	477.14307	214.23511	69.22773	449.74222	200.52353	156.09979	539.50275	225.27032	140.30270	380.02863	80.81920	141.01689	356.48560	92.67578	86.45360	412.73407	96.67767	29.60530
1758	7.02800	468.05280	1059.15051	231.02252	284.66827	1022.56134	67.99216	354.06345	742.03204	370.87473	356.75574	664.56982	349.92685	360.36798	593.18817	343.15500	280.23825	671.42554	332.90854	363.03214	542.94214	333.72952	357.94870	534.35785	203.77768	422.46118	415.54565	338.79224	418.15955	368.50967	338.06384	361.28552	417.63980	341.14020	366.02292	372.00348	337.95673	412.08878	95.35230	275.39999	386.39249	110.58447	188.01381	471.41870	73.46001	215.62317	290.95200	46.91429	300.83630	230.59386	69.75214	244.06075	262.81665	53.18818	186.63191	472.14700	1054.66516	171.00395	255.67725	1019.50244	301.93823	279.03177	757.18915	4.15929	251.61868	683.70709	16.16047	225.59160	608.13727	23.00196	181.48286	711.23059	38.49319	207.80103	548.12628	34.56294	182.87453	500.69238	155.38324	280.68564	501.32565	22.97083	298.65881	460.76065	16.91834	227.80087	469.86887	29.68412	253.05594	433.08746	23.48215	466.24777	211.20711	69.23615	438.54987	197.79614	156.10129	528.80035	220.95908	140.39372	366.71909	79.42380	140.66498	343.39423	91.88297	86.07330	399.70319	94.98453	29.29893
1759	7.03200	464.36826	1059.29114	231.11295	280.84271	1022.71210	68.44862	352.39398	742.29626	371.45627	355.72183	664.88715	350.58621	358.71176	593.13495	343.21454	278.25082	670.99573	332.92786	361.12805	542.83405	333.84589	356.58173	534.29773	203.77617	421.57288	415.72049	338.79211	417.40009	368.61969	338.04196	360.39221	417.54468	341.14899	365.21072	371.96616	337.99176	411.98386	95.41360	275.30350	386.28076	110.59859	187.90936	471.18408	73.36635	215.53604	290.94946	46.84262	300.86533	230.50346	69.61006	244.07379	262.74301	53.17676	186.66977	468.40997	1054.84619	171.07829	252.13831	1019.16608	302.27179	273.73795	758.11700	4.31810	245.77870	684.54700	16.29415	221.74504	610.29285	22.58643	176.01433	712.46875	39.33987	201.18823	549.01636	35.01492	176.42708	500.91711	155.57993	274.01099	501.20996	23.46644	290.80627	460.35428	17.32216	220.78339	470.52588	30.22208	245.43610	433.35977	23.90312	455.27307	208.15903	69.26855	427.36682	194.88133	155.96840	518.00714	216.58444	140.46329	353.25723	78.06802	140.27855	330.16205	91.03140	85.71410	386.62070	93.35155	28.97846
